<svg width="800" height="560" viewBox="0 0 800 560" xmlns="http://www.w3.org/2000/svg" role="img">
  <title>DimArch Sage Palette</title>
  <desc>Official color palette for DimArch OS — Sage theme</desc>

  <rect width="800" height="560" fill="#fafaf8" rx="12"/>

  <text x="40" y="50" font-family="system-ui,-apple-system,sans-serif" font-size="24" font-weight="600" fill="#2d3a2e">DimArch Sage</text>
  <text x="40" y="74" font-family="system-ui,-apple-system,sans-serif" font-size="13" fill="#7fb89e">Modern system. Old soul.</text>

  <line x1="40" y1="92" x2="760" y2="92" stroke="#e8e1cc" stroke-width="0.5"/>

  <text x="40" y="112" font-family="system-ui,-apple-system,sans-serif" font-size="10" fill="#7fb89e" letter-spacing="0.08em" font-weight="500">SHARED — ACCENT</text>

  <rect x="40"  y="122" width="168" height="72" rx="6" fill="#7fb89e"/>
  <text x="40"  y="208" font-family="system-ui,-apple-system,sans-serif" font-size="12" font-weight="500" fill="#2d3a2e">Sage</text>
  <text x="40"  y="223" font-family="monospace,sans-serif" font-size="11" fill="#7a8a7e">#7fb89e</text>

  <rect x="224" y="122" width="168" height="72" rx="6" fill="#6daa8f"/>
  <text x="224" y="208" font-family="system-ui,-apple-system,sans-serif" font-size="12" font-weight="500" fill="#2d3a2e">Sage dark</text>
  <text x="224" y="223" font-family="monospace,sans-serif" font-size="11" fill="#7a8a7e">#6daa8f</text>

  <rect x="408" y="122" width="168" height="72" rx="6" fill="#35a77c"/>
  <text x="408" y="208" font-family="system-ui,-apple-system,sans-serif" font-size="12" font-weight="500" fill="#2d3a2e">Sage vivid</text>
  <text x="408" y="223" font-family="monospace,sans-serif" font-size="11" fill="#7a8a7e">#35a77c</text>

  <rect x="592" y="122" width="168" height="72" rx="6" fill="#2a9068"/>
  <text x="592" y="208" font-family="system-ui,-apple-system,sans-serif" font-size="12" font-weight="500" fill="#2d3a2e">Sage deep</text>
  <text x="592" y="223" font-family="monospace,sans-serif" font-size="11" fill="#7a8a7e">#2a9068</text>

  <line x1="40" y1="238" x2="760" y2="238" stroke="#e8e1cc" stroke-width="0.5"/>

  <text x="40" y="258" font-family="system-ui,-apple-system,sans-serif" font-size="10" fill="#7fb89e" letter-spacing="0.08em" font-weight="500">DARK VARIANT — Ghostty · Waybar · rofi · hyprlock · mako</text>

  <rect x="40"  y="268" width="131" height="72" rx="6" fill="#262f2c"/>
  <text x="40"  y="354" font-family="system-ui,-apple-system,sans-serif" font-size="12" font-weight="500" fill="#2d3a2e">BG primary</text>
  <text x="40"  y="369" font-family="monospace,sans-serif" font-size="11" fill="#7a8a7e">#262f2c</text>

  <rect x="187" y="268" width="131" height="72" rx="6" fill="#212b28"/>
  <text x="187" y="354" font-family="system-ui,-apple-system,sans-serif" font-size="12" font-weight="500" fill="#2d3a2e">BG secondary</text>
  <text x="187" y="369" font-family="monospace,sans-serif" font-size="11" fill="#7a8a7e">#212b28</text>

  <rect x="334" y="268" width="131" height="72" rx="6" fill="#1d2623"/>
  <text x="334" y="354" font-family="system-ui,-apple-system,sans-serif" font-size="12" font-weight="500" fill="#2d3a2e">BG tertiary</text>
  <text x="334" y="369" font-family="monospace,sans-serif" font-size="11" fill="#7a8a7e">#1d2623</text>

  <rect x="481" y="268" width="131" height="72" rx="6" fill="#3a4a42"/>
  <text x="481" y="354" font-family="system-ui,-apple-system,sans-serif" font-size="12" font-weight="500" fill="#2d3a2e">Border</text>
  <text x="481" y="369" font-family="monospace,sans-serif" font-size="11" fill="#7a8a7e">#3a4a42</text>

  <rect x="628" y="268" width="131" height="72" rx="6" fill="#d3c6aa" stroke="#e8e1cc" stroke-width="0.5"/>
  <text x="628" y="354" font-family="system-ui,-apple-system,sans-serif" font-size="12" font-weight="500" fill="#2d3a2e">Text</text>
  <text x="628" y="369" font-family="monospace,sans-serif" font-size="11" fill="#7a8a7e">#d3c6aa</text>

  <line x1="40" y1="384" x2="760" y2="384" stroke="#e8e1cc" stroke-width="0.5"/>

  <text x="40" y="404" font-family="system-ui,-apple-system,sans-serif" font-size="10" fill="#7fb89e" letter-spacing="0.08em" font-weight="500">LIGHT VARIANT — Obsidian · SDDM · Firefox</text>

  <rect x="40"  y="414" width="168" height="72" rx="6" fill="#f8f4ea" stroke="#e8e1cc" stroke-width="0.5"/>
  <text x="40"  y="500" font-family="system-ui,-apple-system,sans-serif" font-size="12" font-weight="500" fill="#2d3a2e">BG primary</text>
  <text x="40"  y="515" font-family="monospace,sans-serif" font-size="11" fill="#7a8a7e">#f8f4ea</text>

  <rect x="224" y="414" width="168" height="72" rx="6" fill="#f3edd8" stroke="#e8e1cc" stroke-width="0.5"/>
  <text x="224" y="500" font-family="system-ui,-apple-system,sans-serif" font-size="12" font-weight="500" fill="#2d3a2e">BG secondary</text>
  <text x="224" y="515" font-family="monospace,sans-serif" font-size="11" fill="#7a8a7e">#f3edd8</text>

  <rect x="408" y="414" width="168" height="72" rx="6" fill="#e8e1cc" stroke="#d8d0bc" stroke-width="0.5"/>
  <text x="408" y="500" font-family="system-ui,-apple-system,sans-serif" font-size="12" font-weight="500" fill="#2d3a2e">Border</text>
  <text x="408" y="515" font-family="monospace,sans-serif" font-size="11" fill="#7a8a7e">#e8e1cc</text>

  <rect x="592" y="414" width="168" height="72" rx="6" fill="#2d3a2e"/>
  <text x="592" y="500" font-family="system-ui,-apple-system,sans-serif" font-size="12" font-weight="500" fill="#2d3a2e">Text</text>
  <text x="592" y="515" font-family="monospace,sans-serif" font-size="11" fill="#7a8a7e">#2d3a2e</text>

  <line x1="40" y1="530" x2="760" y2="530" stroke="#e8e1cc" stroke-width="0.5"/>
  <text x="40"  y="548" font-family="system-ui,-apple-system,sans-serif" font-size="10" fill="#aab8b0">dmitrax/dimarch-theme</text>
  <text x="760" y="548" font-family="system-ui,-apple-system,sans-serif" font-size="10" fill="#aab8b0" text-anchor="end">accent #7fb89e</text>
</svg>
